<?xml version="1.0" encoding="UTF-8" standalone="no"?><svg xmlns="http://www.w3.org/2000/svg" xmlns:xlink="http://www.w3.org/1999/xlink" contentScriptType="application/ecmascript" contentStyleType="text/css" height="278px" preserveAspectRatio="none" style="width:273px;height:278px;background:#777777;" version="1.1" viewBox="0 0 273 278" width="273px" zoomAndPan="magnify"><defs><filter height="300%" id="f1pzn3l0fn3kt8" width="300%" x="-1" y="-1"><feGaussianBlur result="blurOut" stdDeviation="2.0"/><feColorMatrix in="blurOut" result="blurOut2" type="matrix" values="0 0 0 0 0 0 0 0 0 0 0 0 0 0 0 0 0 0 .4 0"/><feOffset dx="4.0" dy="4.0" in="blurOut2" result="blurOut3"/><feBlend in="SourceGraphic" in2="blurOut3" mode="normal"/></filter></defs><g><!--class Tasks--><rect fill="#2E2E2E" filter="url(#f1pzn3l0fn3kt8)" height="118.8281" id="Tasks" style="stroke: #1B1B1B; stroke-width: 1.5;" width="119" x="6" y="8"/><ellipse cx="45" cy="21" fill="#1A66C2" rx="8" ry="8" style="stroke: #1B1B1B; stroke-width: 1.0;"/><path d="M47.125,24.5625 Q46.5469,24.8594 45.9219,25 Q45.3125,25.1563 44.6406,25.1563 Q42.6406,25.1563 41.4688,24.0469 Q40.2969,22.9219 40.2969,21 Q40.2969,19.0781 41.4688,17.9531 Q42.6406,16.8281 44.6406,16.8281 Q45.3125,16.8281 45.9219,16.9844 Q46.5469,17.1406 47.125,17.4375 L47.125,19.0938 Q46.5469,18.7031 45.9844,18.5156 Q45.4219,18.3281 44.8125,18.3281 Q43.7031,18.3281 43.0625,19.0469 Q42.4375,19.75 42.4375,21 Q42.4375,22.2344 43.0625,22.9531 Q43.7031,23.6563 44.8125,23.6563 Q45.4219,23.6563 45.9844,23.4844 Q46.5469,23.2969 47.125,22.9063 L47.125,24.5625 Z "/><text fill="#FFFFFF" font-family="Verdana" font-size="11" lengthAdjust="spacingAndGlyphs" textLength="34" x="61" y="24.8081">Tasks</text><line style="stroke: #1B1B1B; stroke-width: 1.5;" x1="7" x2="124" y1="34" y2="34"/><ellipse cx="17" cy="45" fill="none" rx="3" ry="3" style="stroke: #038048; stroke-width: 1.0;"/><text fill="#AAAAAA" font-family="sans-serif" font-size="11" lengthAdjust="spacingAndGlyphs" textLength="49" x="23" y="48.2104">id: Bigint</text><ellipse cx="17" cy="57.8047" fill="none" rx="3" ry="3" style="stroke: #038048; stroke-width: 1.0;"/><text fill="#AAAAAA" font-family="sans-serif" font-size="11" lengthAdjust="spacingAndGlyphs" textLength="72" x="23" y="61.0151">title: Varchar</text><ellipse cx="17" cy="70.6094" fill="none" rx="3" ry="3" style="stroke: #038048; stroke-width: 1.0;"/><text fill="#AAAAAA" font-family="sans-serif" font-size="11" lengthAdjust="spacingAndGlyphs" textLength="73" x="23" y="73.8198">content: Text</text><ellipse cx="17" cy="83.4141" fill="none" rx="3" ry="3" style="stroke: #038048; stroke-width: 1.0;"/><text fill="#AAAAAA" font-family="sans-serif" font-size="11" lengthAdjust="spacingAndGlyphs" textLength="80" x="23" y="86.6245">open: boolean</text><ellipse cx="17" cy="96.2188" fill="none" rx="3" ry="3" style="stroke: #038048; stroke-width: 1.0;"/><text fill="#AAAAAA" font-family="sans-serif" font-size="11" lengthAdjust="spacingAndGlyphs" textLength="93" x="23" y="99.4292">created_at: Date</text><ellipse cx="17" cy="109.0234" fill="none" rx="3" ry="3" style="stroke: #038048; stroke-width: 1.0;"/><text fill="#AAAAAA" font-family="sans-serif" font-size="11" lengthAdjust="spacingAndGlyphs" textLength="96" x="23" y="112.2339">updated_at: Date</text><line style="stroke: #1B1B1B; stroke-width: 1.5;" x1="7" x2="124" y1="118.8281" y2="118.8281"/><!--class Tags--><rect fill="#2E2E2E" filter="url(#f1pzn3l0fn3kt8)" height="80.4141" id="Tags" style="stroke: #1B1B1B; stroke-width: 1.5;" width="102" x="160.5" y="27.5"/><ellipse cx="194.1" cy="40.5" fill="#1A66C2" rx="8" ry="8" style="stroke: #1B1B1B; stroke-width: 1.0;"/><path d="M196.225,44.0625 Q195.6469,44.3594 195.0219,44.5 Q194.4125,44.6563 193.7406,44.6563 Q191.7406,44.6563 190.5688,43.5469 Q189.3969,42.4219 189.3969,40.5 Q189.3969,38.5781 190.5688,37.4531 Q191.7406,36.3281 193.7406,36.3281 Q194.4125,36.3281 195.0219,36.4844 Q195.6469,36.6406 196.225,36.9375 L196.225,38.5938 Q195.6469,38.2031 195.0844,38.0156 Q194.5219,37.8281 193.9125,37.8281 Q192.8031,37.8281 192.1625,38.5469 Q191.5375,39.25 191.5375,40.5 Q191.5375,41.7344 192.1625,42.4531 Q192.8031,43.1563 193.9125,43.1563 Q194.5219,43.1563 195.0844,42.9844 Q195.6469,42.7969 196.225,42.4063 L196.225,44.0625 Z "/><text fill="#FFFFFF" font-family="Verdana" font-size="11" lengthAdjust="spacingAndGlyphs" textLength="28" x="209.9" y="44.3081">Tags</text><line style="stroke: #1B1B1B; stroke-width: 1.5;" x1="161.5" x2="261.5" y1="53.5" y2="53.5"/><ellipse cx="171.5" cy="64.5" fill="none" rx="3" ry="3" style="stroke: #038048; stroke-width: 1.0;"/><text fill="#AAAAAA" font-family="sans-serif" font-size="11" lengthAdjust="spacingAndGlyphs" textLength="49" x="177.5" y="67.7104">id: Bigint</text><ellipse cx="171.5" cy="77.3047" fill="none" rx="3" ry="3" style="stroke: #038048; stroke-width: 1.0;"/><text fill="#AAAAAA" font-family="sans-serif" font-size="11" lengthAdjust="spacingAndGlyphs" textLength="72" x="177.5" y="80.5151">title: Varchar</text><ellipse cx="171.5" cy="90.1094" fill="none" rx="3" ry="3" style="stroke: #038048; stroke-width: 1.0;"/><text fill="#AAAAAA" font-family="sans-serif" font-size="11" lengthAdjust="spacingAndGlyphs" textLength="79" x="177.5" y="93.3198">color: Varchar</text><line style="stroke: #1B1B1B; stroke-width: 1.5;" x1="161.5" x2="261.5" y1="99.9141" y2="99.9141"/><!--class TagsRelations--><rect fill="#2E2E2E" filter="url(#f1pzn3l0fn3kt8)" height="80.4141" id="TagsRelations" style="stroke: #1B1B1B; stroke-width: 1.5;" width="106" x="85.5" y="187"/><ellipse cx="97.5" cy="200" fill="#1A66C2" rx="8" ry="8" style="stroke: #1B1B1B; stroke-width: 1.0;"/><path d="M99.625,203.5625 Q99.0469,203.8594 98.4219,204 Q97.8125,204.1563 97.1406,204.1563 Q95.1406,204.1563 93.9688,203.0469 Q92.7969,201.9219 92.7969,200 Q92.7969,198.0781 93.9688,196.9531 Q95.1406,195.8281 97.1406,195.8281 Q97.8125,195.8281 98.4219,195.9844 Q99.0469,196.1406 99.625,196.4375 L99.625,198.0938 Q99.0469,197.7031 98.4844,197.5156 Q97.9219,197.3281 97.3125,197.3281 Q96.2031,197.3281 95.5625,198.0469 Q94.9375,198.75 94.9375,200 Q94.9375,201.2344 95.5625,201.9531 Q96.2031,202.6563 97.3125,202.6563 Q97.9219,202.6563 98.4844,202.4844 Q99.0469,202.2969 99.625,201.9063 L99.625,203.5625 Z "/><text fill="#FFFFFF" font-family="Verdana" font-size="11" lengthAdjust="spacingAndGlyphs" textLength="80" x="108.5" y="203.8081">TagsRelations</text><line style="stroke: #1B1B1B; stroke-width: 1.5;" x1="86.5" x2="190.5" y1="213" y2="213"/><ellipse cx="96.5" cy="224" fill="none" rx="3" ry="3" style="stroke: #038048; stroke-width: 1.0;"/><text fill="#AAAAAA" font-family="sans-serif" font-size="11" lengthAdjust="spacingAndGlyphs" textLength="49" x="102.5" y="227.2104">id: Bigint</text><ellipse cx="96.5" cy="236.8047" fill="none" rx="3" ry="3" style="stroke: #038048; stroke-width: 1.0;"/><text fill="#AAAAAA" font-family="sans-serif" font-size="11" lengthAdjust="spacingAndGlyphs" textLength="79" x="102.5" y="240.0151">id_task: Bigint</text><ellipse cx="96.5" cy="249.6094" fill="none" rx="3" ry="3" style="stroke: #038048; stroke-width: 1.0;"/><text fill="#AAAAAA" font-family="sans-serif" font-size="11" lengthAdjust="spacingAndGlyphs" textLength="73" x="102.5" y="252.8198">id_tag: Bigint</text><line style="stroke: #1B1B1B; stroke-width: 1.5;" x1="86.5" x2="190.5" y1="259.4141" y2="259.4141"/><!--link Tasks to TagsRelations--><path d="M92.68,127.15 C101.13,145.37 110.29,165.14 118.19,182.17 " fill="none" id="Tasks-&gt;TagsRelations" style="stroke: #FFFFFF; stroke-width: 1.0;"/><polygon fill="#FFFFFF" points="120.38,186.9,120.2226,177.0524,118.2765,182.364,112.965,180.4179,120.38,186.9" style="stroke: #FFFFFF; stroke-width: 1.0;"/><!--link Tags to TagsRelations--><path d="M193.27,107.84 C182.78,130.47 169.57,158.96 158.76,182.3 " fill="none" id="Tags-&gt;TagsRelations" style="stroke: #FFFFFF; stroke-width: 1.0;"/><polygon fill="#FFFFFF" points="156.63,186.89,164.0372,180.399,158.728,182.3515,156.7756,177.0422,156.63,186.89" style="stroke: #FFFFFF; stroke-width: 1.0;"/><!--
@startuml TaskelloDatabase




skinparam backgroundColor 777
skinparam stereotypeCBackgroundColor 1a66c2





skinparam backgroundColor 777






skinparam circledCharacter {
  radius 8
  fontSize 11
  fontName "Verdana"
}

skinparam class {
    backgroundColor 2e2e2e
  borderColor 1b1b1b
    fontColor fff
  fontName "Verdana"
  fontSize 11
  stereotypeFontColor aaa
  stereotypeFontSize 11
    arrowColor fff
  arrowFontName "Verdana"
  arrowFontColor bbb
  arrowFontSize 11

  attributeFontColor aaa
  attributeFontSize 11
  attributeIconSize 11
}


skinparam actor {
    backgroundColor 1a66c2
  borderColor 002642
    fontColor fff
  fontName "Verdana"
  fontSize 11
  stereotypeFontColor aaa
  stereotypeFontSize 11
}

skinparam participant {
    backgroundColor 2e2e2e
  borderColor 1b1b1b
    fontColor fff
  fontName "Verdana"
  fontSize 11
  stereotypeFontColor aaa
  stereotypeFontSize 11
}


skinparam interface {
    backgroundColor 1a66c2
  borderColor 002642
    fontColor fff
  fontName "Verdana"
  fontSize 11
  stereotypeFontColor aaa
  stereotypeFontSize 11
}

skinparam component {
    backgroundColor 2e2e2e
  borderColor 1b1b1b
    fontColor fff
  fontName "Verdana"
  fontSize 11
  stereotypeFontColor aaa
  stereotypeFontSize 11
}

skinparam node {
    backgroundColor 2e2e2e
  borderColor 1b1b1b
    fontColor fff
  fontName "Verdana"
  fontSize 11
  stereotypeFontColor aaa
  stereotypeFontSize 11
}

skinparam database {
    backgroundColor 2e2e2e
  borderColor 1b1b1b
    fontColor fff
  fontName "Verdana"
  fontSize 11
  stereotypeFontColor aaa
  stereotypeFontSize 11
}

skinparam queue {
    backgroundColor 2e2e2e
  borderColor 1b1b1b
    fontColor fff
  fontName "Verdana"
  fontSize 11
  stereotypeFontColor aaa
  stereotypeFontSize 11
}


skinparam usecase {
    backgroundColor 2e2e2e
  borderColor 1b1b1b
    fontColor fff
  fontName "Verdana"
  fontSize 11
  stereotypeFontColor aaa
  stereotypeFontSize 11
    arrowColor fff
  arrowFontName "Verdana"
  arrowFontColor bbb
  arrowFontSize 11
}

skinparam activity {
    backgroundColor 2e2e2e
  borderColor 1b1b1b
    fontColor fff
  fontName "Verdana"
  fontSize 11
  stereotypeFontColor aaa
  stereotypeFontSize 11
    arrowColor fff
  arrowFontName "Verdana"
  arrowFontColor bbb
  arrowFontSize 11
}

skinparam sequence {
    fontColor fff
  fontName "Verdana"
  fontSize 11
  stereotypeFontColor aaa
  stereotypeFontSize 11
    arrowColor fff
  arrowFontName "Verdana"
  arrowFontColor bbb
  arrowFontSize 11

  lifeLineBorderColor fff
  lifeLineBackgroundColor bbb
}

skinparam boundary {
    backgroundColor 1a66c2
  borderColor 002642
    fontColor fff
  fontName "Verdana"
  fontSize 11
  stereotypeFontColor aaa
  stereotypeFontSize 11
}

skinparam control {
    backgroundColor 1a66c2
  borderColor 002642
    fontColor fff
  fontName "Verdana"
  fontSize 11
  stereotypeFontColor aaa
  stereotypeFontSize 11
}

skinparam entity {
    backgroundColor 1a66c2
  borderColor 002642
    fontColor fff
  fontName "Verdana"
  fontSize 11
  stereotypeFontColor aaa
  stereotypeFontSize 11
}


skinparam state {
    backgroundColor 2e2e2e
  borderColor 1b1b1b
    fontColor fff
  fontName "Verdana"
  fontSize 11
  stereotypeFontColor aaa
  stereotypeFontSize 11
    arrowColor fff
  arrowFontName "Verdana"
  arrowFontColor bbb
  arrowFontSize 11
  startColor 1a66c2
  endColor 002642
}


skinparam object {
    backgroundColor 2e2e2e
  borderColor 1b1b1b
    fontColor fff
  fontName "Verdana"
  fontSize 11
  stereotypeFontColor aaa
  stereotypeFontSize 11
    arrowColor fff
  arrowFontName "Verdana"
  arrowFontColor bbb
  arrowFontSize 11
}


skinparam note {
    backgroundColor 1a66c2
  borderColor 002642
    fontColor fff
  fontName "Verdana"
  fontSize 11
  stereotypeFontColor aaa
  stereotypeFontSize 11
}

skinparam cloud {
    backgroundColor 2e2e2e
  borderColor 1b1b1b
    fontColor fff
  fontName "Verdana"
  fontSize 11
  stereotypeFontColor aaa
  stereotypeFontSize 11
    arrowColor fff
  arrowFontName "Verdana"
  arrowFontColor bbb
  arrowFontSize 11
}

skinparam rectangle {
    backgroundColor 2e2e2e
  borderColor 1b1b1b
    fontColor fff
  fontName "Verdana"
  fontSize 11
  stereotypeFontColor aaa
  stereotypeFontSize 11
}

skinparam storage {
    backgroundColor 2e2e2e
  borderColor 1b1b1b
    fontColor fff
  fontName "Verdana"
  fontSize 11
  stereotypeFontColor aaa
  stereotypeFontSize 11
}


class Tasks {
    + id: Bigint
    + title: Varchar
    + content: Text
    + open: boolean
    + created_at: Date
    + updated_at: Date
}

class Tags {
    + id: Bigint
    + title: Varchar
    + color: Varchar
}

class TagsRelations {
    + id: Bigint
    + id_task: Bigint
    + id_tag: Bigint
}

Tasks - -> TagsRelations
Tags - -> TagsRelations

@enduml

PlantUML version 1.2019.09(Mon Aug 26 18:19:51 CEST 2019)
(GPL source distribution)
Java Runtime: OpenJDK Runtime Environment
JVM: OpenJDK 64-Bit Server VM
Java Version: 13.0.1+9
Operating System: Linux
OS Version: 5.3.18-1-MANJARO
Default Encoding: UTF-8
Language: it
Country: IT
--></g></svg>